<svg width="332" height="257" viewBox="0 0 332 257" fill="none" xmlns="http://www.w3.org/2000/svg">
<path d="M13.8056 131.28V125.2H35.0056V131.28H13.8056ZM30.7256 115H37.4856V143H30.7256V115ZM11.9256 115H18.6856V143H11.9256V115ZM65.3631 137.6L65.8431 132.44H79.7231L80.1631 137.6H65.3631ZM72.6831 125.28L68.7631 134.32L69.0831 135.8L65.6031 143H57.9631L72.6831 113.24L87.4431 143H79.7631L76.4031 136.08L76.6431 134.36L72.6831 125.28ZM127.289 115H133.809V144.4L114.449 127.24V143H107.969V113.6L127.289 130.76V115ZM171.199 132.88V127.68H185.359C185.493 129.92 185.266 132.013 184.679 133.96C184.093 135.907 183.186 137.627 181.959 139.12C180.733 140.613 179.199 141.787 177.359 142.64C175.519 143.467 173.413 143.88 171.039 143.88C168.799 143.88 166.746 143.533 164.879 142.84C163.013 142.12 161.399 141.107 160.039 139.8C158.679 138.467 157.613 136.893 156.839 135.08C156.093 133.24 155.719 131.213 155.719 129C155.719 126.787 156.106 124.787 156.879 123C157.653 121.187 158.746 119.64 160.159 118.36C161.573 117.08 163.226 116.093 165.119 115.4C167.013 114.707 169.066 114.36 171.279 114.36C173.253 114.36 175.026 114.64 176.599 115.2C178.173 115.76 179.559 116.547 180.759 117.56C181.986 118.547 183.039 119.693 183.919 121L177.919 124.12C177.279 123 176.413 122.08 175.319 121.36C174.253 120.613 172.906 120.24 171.279 120.24C169.733 120.24 168.306 120.587 166.999 121.28C165.719 121.973 164.693 122.973 163.919 124.28C163.173 125.56 162.799 127.133 162.799 129C162.799 130.84 163.159 132.44 163.879 133.8C164.626 135.133 165.626 136.173 166.879 136.92C168.159 137.64 169.626 138 171.279 138C172.293 138 173.213 137.88 174.039 137.64C174.866 137.373 175.573 137.013 176.159 136.56C176.746 136.08 177.239 135.533 177.639 134.92C178.066 134.28 178.399 133.6 178.639 132.88H171.199ZM213.05 129C213.05 130.653 213.37 132.12 214.01 133.4C214.676 134.653 215.596 135.64 216.77 136.36C217.97 137.08 219.37 137.44 220.97 137.44C222.543 137.44 223.916 137.08 225.09 136.36C226.29 135.64 227.21 134.653 227.85 133.4C228.516 132.12 228.85 130.653 228.85 129C228.85 127.347 228.53 125.893 227.89 124.64C227.25 123.36 226.343 122.36 225.17 121.64C223.996 120.92 222.596 120.56 220.97 120.56C219.37 120.56 217.97 120.92 216.77 121.64C215.596 122.36 214.676 123.36 214.01 124.64C213.37 125.893 213.05 127.347 213.05 129ZM205.89 129C205.89 126.84 206.263 124.867 207.01 123.08C207.783 121.293 208.85 119.747 210.21 118.44C211.57 117.133 213.17 116.133 215.01 115.44C216.85 114.72 218.836 114.36 220.97 114.36C223.13 114.36 225.116 114.72 226.93 115.44C228.77 116.133 230.37 117.133 231.73 118.44C233.09 119.747 234.143 121.293 234.89 123.08C235.636 124.867 236.01 126.84 236.01 129C236.01 131.16 235.636 133.147 234.89 134.96C234.17 136.773 233.13 138.347 231.77 139.68C230.436 141.013 228.85 142.053 227.01 142.8C225.17 143.52 223.156 143.88 220.97 143.88C218.756 143.88 216.73 143.52 214.89 142.8C213.05 142.053 211.45 141.013 210.09 139.68C208.756 138.347 207.716 136.773 206.97 134.96C206.25 133.147 205.89 131.16 205.89 129ZM257.733 115H264.493V133.32C264.493 134.733 264.867 135.88 265.613 136.76C266.36 137.64 267.48 138.08 268.973 138.08C270.493 138.08 271.627 137.64 272.373 136.76C273.12 135.88 273.493 134.733 273.493 133.32V115H280.253V133.8C280.253 135.56 279.96 137.093 279.373 138.4C278.813 139.707 278.013 140.787 276.973 141.64C275.96 142.467 274.76 143.093 273.373 143.52C272.013 143.947 270.547 144.16 268.973 144.16C267.4 144.16 265.933 143.947 264.573 143.52C263.213 143.093 262.013 142.467 260.973 141.64C259.96 140.787 259.16 139.707 258.573 138.4C258.013 137.093 257.733 135.56 257.733 133.8V115ZM300.772 121.04V115H322.932V121.04H315.212V143H308.452V121.04H300.772Z" fill="black"/>
<path d="M84.3913 157.74V156.96H85.7473C85.9953 156.96 86.2113 156.92 86.3953 156.84C86.5793 156.76 86.7193 156.644 86.8153 156.492C86.9193 156.34 86.9713 156.16 86.9713 155.952C86.9713 155.632 86.8593 155.388 86.6353 155.22C86.4193 155.052 86.1233 154.968 85.7473 154.968H84.8233V160.632H85.9273C86.2153 160.632 86.4753 160.592 86.7073 160.512C86.9393 160.424 87.1193 160.288 87.2473 160.104C87.3833 159.92 87.4513 159.684 87.4513 159.396C87.4513 159.188 87.4113 159.012 87.3313 158.868C87.2593 158.716 87.1513 158.592 87.0073 158.496C86.8713 158.392 86.7113 158.32 86.5273 158.28C86.3433 158.232 86.1433 158.208 85.9273 158.208H84.3913V157.272H86.0833C86.4913 157.272 86.8793 157.316 87.2473 157.404C87.6233 157.492 87.9593 157.632 88.2553 157.824C88.5513 158.008 88.7833 158.248 88.9513 158.544C89.1273 158.84 89.2153 159.196 89.2153 159.612C89.2153 160.164 89.0833 160.616 88.8193 160.968C88.5633 161.32 88.1993 161.58 87.7273 161.748C87.2553 161.916 86.7073 162 86.0833 162H83.1073V153.6H85.9033C86.4633 153.6 86.9553 153.68 87.3793 153.84C87.8033 153.992 88.1353 154.224 88.3753 154.536C88.6153 154.848 88.7353 155.244 88.7353 155.724C88.7353 156.148 88.6153 156.512 88.3753 156.816C88.1353 157.12 87.8033 157.352 87.3793 157.512C86.9553 157.664 86.4633 157.74 85.9033 157.74H84.3913ZM95.2658 160.092L95.4698 158.736H99.5018L99.7058 160.092H95.2658ZM97.4618 156.324L96.2018 159.216L96.2378 159.6L95.1338 162H93.2018L97.4618 153.108L101.722 162H99.7778L98.6978 159.672L98.7218 159.24L97.4618 156.324ZM108.141 158.088H109.953L112.689 162H110.661L108.141 158.088ZM106.233 153.6H107.949V162H106.233V153.6ZM107.277 155.064V153.6H109.053C109.717 153.6 110.281 153.712 110.745 153.936C111.209 154.16 111.565 154.472 111.813 154.872C112.061 155.272 112.185 155.74 112.185 156.276C112.185 156.804 112.061 157.272 111.813 157.68C111.565 158.08 111.209 158.392 110.745 158.616C110.281 158.84 109.717 158.952 109.053 158.952H107.277V157.584H108.945C109.249 157.584 109.509 157.536 109.725 157.44C109.949 157.336 110.121 157.192 110.241 157.008C110.361 156.816 110.421 156.588 110.421 156.324C110.421 156.06 110.361 155.836 110.241 155.652C110.121 155.46 109.949 155.316 109.725 155.22C109.509 155.116 109.249 155.064 108.945 155.064H107.277ZM126.236 157.5C126.068 157.308 125.892 157.108 125.708 156.9C125.524 156.692 125.364 156.468 125.228 156.228C125.1 155.988 125.036 155.724 125.036 155.436C125.036 155.076 125.136 154.744 125.336 154.44C125.536 154.128 125.816 153.88 126.176 153.696C126.536 153.512 126.964 153.42 127.46 153.42C127.948 153.42 128.364 153.516 128.708 153.708C129.052 153.9 129.312 154.148 129.488 154.452C129.664 154.748 129.752 155.064 129.752 155.4C129.752 155.656 129.708 155.884 129.62 156.084C129.532 156.284 129.404 156.476 129.236 156.66C129.068 156.844 128.864 157.024 128.624 157.2C128.384 157.376 128.104 157.568 127.784 157.776C127.568 157.912 127.336 158.04 127.088 158.16C126.848 158.272 126.62 158.392 126.404 158.52C126.188 158.648 126.012 158.8 125.876 158.976C125.74 159.152 125.672 159.372 125.672 159.636C125.672 159.86 125.728 160.064 125.84 160.248C125.96 160.424 126.124 160.564 126.332 160.668C126.548 160.764 126.8 160.812 127.088 160.812C127.44 160.812 127.784 160.74 128.12 160.596C128.464 160.444 128.792 160.24 129.104 159.984C129.424 159.72 129.728 159.42 130.016 159.084C130.304 158.74 130.576 158.38 130.832 158.004L131.9 158.784C131.62 159.176 131.308 159.572 130.964 159.972C130.628 160.372 130.252 160.736 129.836 161.064C129.428 161.384 128.98 161.644 128.492 161.844C128.004 162.044 127.472 162.144 126.896 162.144C126.384 162.144 125.912 162.048 125.48 161.856C125.048 161.664 124.7 161.392 124.436 161.04C124.172 160.68 124.04 160.256 124.04 159.768C124.04 159.392 124.112 159.068 124.256 158.796C124.4 158.524 124.584 158.292 124.808 158.1C125.032 157.9 125.276 157.732 125.54 157.596C125.804 157.46 126.056 157.344 126.296 157.248C126.544 157.144 126.752 157.052 126.92 156.972C127.368 156.74 127.712 156.5 127.952 156.252C128.192 155.996 128.312 155.752 128.312 155.52C128.312 155.368 128.276 155.228 128.204 155.1C128.14 154.972 128.044 154.872 127.916 154.8C127.788 154.72 127.632 154.68 127.448 154.68C127.16 154.68 126.94 154.764 126.788 154.932C126.636 155.092 126.56 155.284 126.56 155.508C126.56 155.756 126.664 156.004 126.872 156.252C127.088 156.492 127.344 156.776 127.64 157.104L132.08 162H130.292L126.236 157.5ZM145.908 158.088H147.72L150.456 162H148.428L145.908 158.088ZM144 153.6H145.716V162H144V153.6ZM145.044 155.064V153.6H146.82C147.484 153.6 148.048 153.712 148.512 153.936C148.976 154.16 149.332 154.472 149.58 154.872C149.828 155.272 149.952 155.74 149.952 156.276C149.952 156.804 149.828 157.272 149.58 157.68C149.332 158.08 148.976 158.392 148.512 158.616C148.048 158.84 147.484 158.952 146.82 158.952H145.044V157.584H146.712C147.016 157.584 147.276 157.536 147.492 157.44C147.716 157.336 147.888 157.192 148.008 157.008C148.128 156.816 148.188 156.588 148.188 156.324C148.188 156.06 148.128 155.836 148.008 155.652C147.888 155.46 147.716 155.316 147.492 155.22C147.276 155.116 147.016 155.064 146.712 155.064H145.044ZM156.146 162V160.548H160.382V162H156.146ZM156.146 155.052V153.6H160.382V155.052H156.146ZM156.146 158.256V156.828H160.142V158.256H156.146ZM155.042 153.6H156.698V162H155.042V153.6ZM166.405 159.18C166.581 159.492 166.773 159.764 166.981 159.996C167.197 160.228 167.433 160.408 167.689 160.536C167.945 160.664 168.221 160.728 168.517 160.728C168.861 160.728 169.141 160.64 169.357 160.464C169.573 160.288 169.681 160.048 169.681 159.744C169.681 159.48 169.613 159.268 169.477 159.108C169.349 158.948 169.153 158.808 168.889 158.688C168.633 158.56 168.317 158.424 167.941 158.28C167.741 158.208 167.509 158.112 167.245 157.992C166.989 157.864 166.745 157.704 166.513 157.512C166.281 157.312 166.089 157.072 165.937 156.792C165.785 156.504 165.709 156.16 165.709 155.76C165.709 155.28 165.829 154.868 166.069 154.524C166.317 154.172 166.649 153.904 167.065 153.72C167.489 153.528 167.961 153.432 168.481 153.432C169.017 153.432 169.477 153.524 169.861 153.708C170.253 153.884 170.577 154.112 170.833 154.392C171.097 154.664 171.301 154.948 171.445 155.244L170.101 155.988C169.989 155.788 169.853 155.608 169.693 155.448C169.541 155.28 169.365 155.148 169.165 155.052C168.965 154.948 168.737 154.896 168.481 154.896C168.145 154.896 167.893 154.976 167.725 155.136C167.557 155.288 167.473 155.468 167.473 155.676C167.473 155.884 167.541 156.068 167.677 156.228C167.813 156.38 168.021 156.528 168.301 156.672C168.581 156.808 168.933 156.948 169.357 157.092C169.629 157.188 169.889 157.308 170.137 157.452C170.393 157.596 170.621 157.772 170.821 157.98C171.029 158.18 171.189 158.42 171.301 158.7C171.421 158.972 171.481 159.288 171.481 159.648C171.481 160.056 171.401 160.42 171.241 160.74C171.081 161.06 170.861 161.332 170.581 161.556C170.301 161.772 169.985 161.936 169.633 162.048C169.289 162.168 168.925 162.228 168.541 162.228C168.029 162.228 167.549 162.132 167.101 161.94C166.661 161.74 166.277 161.472 165.949 161.136C165.621 160.8 165.365 160.436 165.181 160.044L166.405 159.18ZM175.64 155.148V153.6H181.88V155.148H179.612V162H177.896V155.148H175.64ZM186.424 160.092L186.628 158.736H190.66L190.864 160.092H186.424ZM188.62 156.324L187.36 159.216L187.396 159.6L186.292 162H184.36L188.62 153.108L192.88 162H190.936L189.856 159.672L189.88 159.24L188.62 156.324ZM197.331 153.6H199.047V159.132C199.047 159.612 199.171 160 199.419 160.296C199.675 160.584 200.051 160.728 200.547 160.728C201.043 160.728 201.415 160.584 201.663 160.296C201.919 160 202.047 159.612 202.047 159.132V153.6H203.763V159.24C203.763 159.736 203.683 160.172 203.523 160.548C203.363 160.924 203.135 161.24 202.839 161.496C202.551 161.752 202.211 161.944 201.819 162.072C201.427 162.208 201.003 162.276 200.547 162.276C200.083 162.276 199.655 162.208 199.263 162.072C198.871 161.944 198.531 161.752 198.243 161.496C197.955 161.24 197.731 160.924 197.571 160.548C197.411 160.172 197.331 159.736 197.331 159.24V153.6ZM211.02 158.088H212.832L215.568 162H213.54L211.02 158.088ZM209.112 153.6H210.828V162H209.112V153.6ZM210.156 155.064V153.6H211.932C212.596 153.6 213.16 153.712 213.624 153.936C214.088 154.16 214.444 154.472 214.692 154.872C214.94 155.272 215.064 155.74 215.064 156.276C215.064 156.804 214.94 157.272 214.692 157.68C214.444 158.08 214.088 158.392 213.624 158.616C213.16 158.84 212.596 158.952 211.932 158.952H210.156V157.584H211.824C212.128 157.584 212.388 157.536 212.604 157.44C212.828 157.336 213 157.192 213.12 157.008C213.24 156.816 213.3 156.588 213.3 156.324C213.3 156.06 213.24 155.836 213.12 155.652C213 155.46 212.828 155.316 212.604 155.22C212.388 155.116 212.128 155.064 211.824 155.064H210.156ZM221.317 160.092L221.521 158.736H225.553L225.757 160.092H221.317ZM223.513 156.324L222.253 159.216L222.289 159.6L221.185 162H219.253L223.513 153.108L227.773 162H225.829L224.749 159.672L224.773 159.24L223.513 156.324ZM238.261 153.6H239.917V162.42L233.941 156.792V162H232.285V153.18L238.261 158.808V153.6ZM244.502 155.148V153.6H250.742V155.148H248.474V162H246.758V155.148H244.502Z" fill="black"/>
<path d="M127.689 110.338L127.787 106.293L128.552 104.559L134.315 96.9578L139.655 89.7698L152.997 74.2764L163.881 62.1703L175.774 51.0535" stroke="black"/>
<path d="M129.774 63.5535L140.274 63.0535L150.274 62.5535L170.274 62.0535L178.274 62.0535L185.774 62.5538L196.274 63.0536L201.274 63.5535L204.274 64.0535L204.774 65.5535" stroke="black"/>
<path d="M155.047 80.6079L182.774 69.0535L196.774 62.5535L202.774 58.5535L206.774 54.0535" stroke="black"/>
<path d="M152.992 90.641L174.774 68.5535L189.774 58.5535L198.274 54.5535L202.774 53.641L206.774 54.0535" stroke="black"/>
<path d="M153.067 90.5983L158.774 87.5535L164.067 85.5983" stroke="black"/>
<path d="M164.274 85.0534L161.274 91.5535" stroke="black"/>
<line x1="161.085" y1="91.5907" x2="183.085" y2="82.5907" stroke="black"/>
<path d="M183.561 82.4631L178.774 87.5535L173.774 89.0535" stroke="black"/>
<path d="M173.774 89.0534L175.774 91.5535L181.274 89.5535L183.274 88.5535L184.774 87.5535L188.169 85.5645" stroke="black"/>
<line x1="176.607" y1="85.3182" x2="174.698" y2="88.3768" stroke="black"/>
</svg>
